<?xml version="1.0" encoding="UTF-8"?>
<svg version="1.1" xmlns="http://www.w3.org/2000/svg" width="360" height="100">
<path d="M0 0 C0.99773438 -0.00315216 1.99546875 -0.00630432 3.0234375 -0.009552 C4.65152344 -0.00651566 4.65152344 -0.00651566 6.3125 -0.00341797 C7.41851562 -0.00437469 8.52453125 -0.00533142 9.6640625 -0.00631714 C12.00781308 -0.00699913 14.35156553 -0.00514351 16.6953125 -0.00097656 C20.29691788 0.00437139 23.89839853 -0.00092093 27.5 -0.00732422 C29.77083361 -0.00666344 32.04166714 -0.00538229 34.3125 -0.00341797 C35.94058594 -0.00645432 35.94058594 -0.00645432 37.6015625 -0.009552 C38.59929688 -0.00639984 39.59703125 -0.00324768 40.625 0 C41.50800781 0.00079559 42.39101563 0.00159119 43.30078125 0.00241089 C45.3125 0.12939453 45.3125 0.12939453 46.3125 1.12939453 C46.41262401 3.33590109 46.4433118 5.5456184 46.4453125 7.75439453 C46.44626923 8.41648926 46.44722595 9.07858398 46.44821167 9.76074219 C46.44889326 11.16292414 46.44704042 12.56510924 46.44287109 13.96728516 C46.43752246 16.12035166 46.4428167 18.27320955 46.44921875 20.42626953 C46.44855796 21.78564499 46.44727679 23.14502033 46.4453125 24.50439453 C46.44418457 25.74962891 46.44305664 26.99486328 46.44189453 28.27783203 C46.3125 31.12939453 46.3125 31.12939453 45.3125 32.12939453 C43.8237814 32.21608885 42.331055 32.23642947 40.83984375 32.22705078 C39.94072266 32.22382812 39.04160156 32.22060547 38.11523438 32.21728516 C36.69694336 32.2047168 36.69694336 32.2047168 35.25 32.19189453 C34.30060547 32.18738281 33.35121094 32.18287109 32.37304688 32.17822266 C30.01946935 32.16639563 27.66601523 32.14991478 25.3125 32.12939453 C25.3125 33.44939453 25.3125 34.76939453 25.3125 36.12939453 C28.6125 36.12939453 31.9125 36.12939453 35.3125 36.12939453 C35.3125 37.44939453 35.3125 38.76939453 35.3125 40.12939453 C25.4125 40.12939453 15.5125 40.12939453 5.3125 40.12939453 C5.3125 38.80939453 5.3125 37.48939453 5.3125 36.12939453 C8.6125 36.12939453 11.9125 36.12939453 15.3125 36.12939453 C15.3125 34.80939453 15.3125 33.48939453 15.3125 32.12939453 C14.71187744 32.13463135 14.11125488 32.13986816 13.49243164 32.14526367 C10.78663162 32.16597467 8.08084823 32.17903578 5.375 32.19189453 C4.42947266 32.20027344 3.48394531 32.20865234 2.50976562 32.21728516 C1.16108398 32.22211914 1.16108398 32.22211914 -0.21484375 32.22705078 C-1.46382446 32.23490601 -1.46382446 32.23490601 -2.73803711 32.24291992 C-4.6875 32.12939453 -4.6875 32.12939453 -5.6875 31.12939453 C-5.78762401 28.92288797 -5.8183118 26.71317067 -5.8203125 24.50439453 C-5.82126923 23.8422998 -5.82222595 23.18020508 -5.82321167 22.49804688 C-5.82389326 21.09586492 -5.82204042 19.69367983 -5.81787109 18.29150391 C-5.81252246 16.1384374 -5.8178167 13.98557951 -5.82421875 11.83251953 C-5.82355796 10.47314407 -5.82227679 9.11376874 -5.8203125 7.75439453 C-5.81918457 6.50916016 -5.81805664 5.26392578 -5.81689453 3.98095703 C-5.60780008 -0.62701123 -4.16923353 0.00375649 0 0 Z " fill="#E7E9F5" transform="translate(9.6875,13.87060546875)"/>
<path d="M0 0 C0.99773438 -0.00315216 1.99546875 -0.00630432 3.0234375 -0.009552 C4.65152344 -0.00651566 4.65152344 -0.00651566 6.3125 -0.00341797 C7.41851562 -0.00437469 8.52453125 -0.00533142 9.6640625 -0.00631714 C12.00781308 -0.00699913 14.35156553 -0.00514351 16.6953125 -0.00097656 C20.29691788 0.00437139 23.89839853 -0.00092093 27.5 -0.00732422 C29.77083361 -0.00666344 32.04166714 -0.00538229 34.3125 -0.00341797 C35.94058594 -0.00645432 35.94058594 -0.00645432 37.6015625 -0.009552 C38.59929688 -0.00639984 39.59703125 -0.00324768 40.625 0 C41.50800781 0.00079559 42.39101563 0.00159119 43.30078125 0.00241089 C45.3125 0.12939453 45.3125 0.12939453 46.3125 1.12939453 C46.41262401 3.33590109 46.4433118 5.5456184 46.4453125 7.75439453 C46.44626923 8.41648926 46.44722595 9.07858398 46.44821167 9.76074219 C46.44889326 11.16292414 46.44704042 12.56510924 46.44287109 13.96728516 C46.43752246 16.12035166 46.4428167 18.27320955 46.44921875 20.42626953 C46.44855796 21.78564499 46.44727679 23.14502033 46.4453125 24.50439453 C46.44418457 25.74962891 46.44305664 26.99486328 46.44189453 28.27783203 C46.3125 31.12939453 46.3125 31.12939453 45.3125 32.12939453 C43.8237814 32.21608885 42.331055 32.23642947 40.83984375 32.22705078 C39.94072266 32.22382812 39.04160156 32.22060547 38.11523438 32.21728516 C36.69694336 32.2047168 36.69694336 32.2047168 35.25 32.19189453 C34.30060547 32.18738281 33.35121094 32.18287109 32.37304688 32.17822266 C30.01946935 32.16639563 27.66601523 32.14991478 25.3125 32.12939453 C25.3125 33.44939453 25.3125 34.76939453 25.3125 36.12939453 C28.6125 36.12939453 31.9125 36.12939453 35.3125 36.12939453 C35.3125 37.44939453 35.3125 38.76939453 35.3125 40.12939453 C25.4125 40.12939453 15.5125 40.12939453 5.3125 40.12939453 C5.3125 38.80939453 5.3125 37.48939453 5.3125 36.12939453 C8.6125 36.12939453 11.9125 36.12939453 15.3125 36.12939453 C15.3125 34.80939453 15.3125 33.48939453 15.3125 32.12939453 C14.71187744 32.13463135 14.11125488 32.13986816 13.49243164 32.14526367 C10.78663162 32.16597467 8.08084823 32.17903578 5.375 32.19189453 C4.42947266 32.20027344 3.48394531 32.20865234 2.50976562 32.21728516 C1.16108398 32.22211914 1.16108398 32.22211914 -0.21484375 32.22705078 C-1.46382446 32.23490601 -1.46382446 32.23490601 -2.73803711 32.24291992 C-4.6875 32.12939453 -4.6875 32.12939453 -5.6875 31.12939453 C-5.78762401 28.92288797 -5.8183118 26.71317067 -5.8203125 24.50439453 C-5.82126923 23.8422998 -5.82222595 23.18020508 -5.82321167 22.49804688 C-5.82389326 21.09586492 -5.82204042 19.69367983 -5.81787109 18.29150391 C-5.81252246 16.1384374 -5.8178167 13.98557951 -5.82421875 11.83251953 C-5.82355796 10.47314407 -5.82227679 9.11376874 -5.8203125 7.75439453 C-5.81918457 6.50916016 -5.81805664 5.26392578 -5.81689453 3.98095703 C-5.60780008 -0.62701123 -4.16923353 0.00375649 0 0 Z M-3.6875 3.12939453 C-3.78721786 5.04397735 -3.81830589 6.9622177 -3.8203125 8.87939453 C-3.82160156 10.04470703 -3.82289062 11.21001953 -3.82421875 12.41064453 C-3.82035156 13.63783203 -3.81648437 14.86501953 -3.8125 16.12939453 C-3.81636719 17.35658203 -3.82023438 18.58376953 -3.82421875 19.84814453 C-3.82292969 21.01345703 -3.82164063 22.17876953 -3.8203125 23.37939453 C-3.81918457 24.45705078 -3.81805664 25.53470703 -3.81689453 26.64501953 C-3.96842371 29.0715945 -3.96842371 29.0715945 -2.6875 30.12939453 C-1.25009647 30.2275344 0.19206327 30.25737733 1.6328125 30.25878906 C2.55046387 30.26194122 3.46811523 30.26509338 4.41357422 30.26834106 C5.41146973 30.26631683 6.40936523 30.2642926 7.4375 30.26220703 C8.96334717 30.26364212 8.96334717 30.26364212 10.52001953 30.2651062 C12.67545636 30.26578814 14.83089522 30.26393288 16.98632812 30.25976562 C20.29822371 30.25441758 23.60998367 30.25971016 26.921875 30.26611328 C29.01041697 30.2654525 31.09895885 30.26417135 33.1875 30.26220703 C34.68434326 30.26524338 34.68434326 30.26524338 36.21142578 30.26834106 C37.12907715 30.2651889 38.04672852 30.26203674 38.9921875 30.25878906 C39.80413574 30.25799347 40.61608398 30.25719788 41.45263672 30.25637817 C43.32795753 30.33303643 43.32795753 30.33303643 44.3125 29.12939453 C44.41221786 27.21481171 44.44330589 25.29657136 44.4453125 23.37939453 C44.44660156 22.21408203 44.44789062 21.04876953 44.44921875 19.84814453 C44.44341797 18.00736328 44.44341797 18.00736328 44.4375 16.12939453 C44.44136719 14.90220703 44.44523437 13.67501953 44.44921875 12.41064453 C44.44792969 11.24533203 44.44664063 10.08001953 44.4453125 8.87939453 C44.44362061 7.26291016 44.44362061 7.26291016 44.44189453 5.61376953 C44.59342371 3.18719456 44.59342371 3.18719456 43.3125 2.12939453 C41.87509647 2.03125466 40.43293673 2.00141173 38.9921875 2 C38.07453613 1.99684784 37.15688477 1.99369568 36.21142578 1.990448 C34.71458252 1.99348434 34.71458252 1.99348434 33.1875 1.99658203 C31.66165283 1.99514694 31.66165283 1.99514694 30.10498047 1.99368286 C27.94954364 1.99300092 25.79410478 1.99485618 23.63867188 1.99902344 C20.32677629 2.00437148 17.01501633 1.9990789 13.703125 1.99267578 C11.61458303 1.99333656 9.52604115 1.99461772 7.4375 1.99658203 C6.43960449 1.9945578 5.44170898 1.99253357 4.41357422 1.990448 C3.49592285 1.99360016 2.57827148 1.99675232 1.6328125 2 C0.82086426 2.00079559 0.00891602 2.00159119 -0.82763672 2.00241089 C-2.70295753 1.92575264 -2.70295753 1.92575264 -3.6875 3.12939453 Z " fill="#3F51B5" transform="translate(9.6875,13.87060546875)"/>
<path d="M0 0 C1.98 0 3.96 0 6 0 C6 2.64 6 5.28 6 8 C8.31 8 10.62 8 13 8 C13 5.36 13 2.72 13 0 C14.98 0 16.96 0 19 0 C19 6.93 19 13.86 19 21 C17.02 21 15.04 21 13 21 C13 18.36 13 15.72 13 13 C10.69 13 8.38 13 6 13 C6 15.64 6 18.28 6 21 C4.02 21 2.04 21 0 21 C0 14.07 0 7.14 0 0 Z " fill="#212121" transform="translate(157,34)"/>
<path d="M0 0 C1.98 0 3.96 0 6 0 C6.33 5.28 6.66 10.56 7 16 C8.65 16 10.3 16 12 16 C12 10.72 12 5.44 12 0 C14.31 0 16.62 0 19 0 C19.08139142 2.39652528 19.14067009 4.79025436 19.1875 7.1875 C19.21263672 7.86103516 19.23777344 8.53457031 19.26367188 9.22851562 C19.32931539 13.71415591 18.68855807 16.40396893 16 20 C14.27152533 21.72847467 12.0426665 21.29389493 9.6875 21.375 C8.23923828 21.44847656 8.23923828 21.44847656 6.76171875 21.5234375 C4 21 4 21 1.66015625 18.99609375 C-0.52387915 15.05455221 -0.45519381 12.10311298 -0.25 7.6875 C-0.23195312 6.94693359 -0.21390625 6.20636719 -0.1953125 5.44335938 C-0.14847337 3.6283429 -0.07673789 1.81399834 0 0 Z " fill="#3F51B5" transform="translate(192,34)"/>
<path d="M0 0 C4.95 0 9.9 0 15 0 C15 1.65 15 3.3 15 5 C12.03 5 9.06 5 6 5 C6 5.99 6 6.98 6 8 C8.97 8 11.94 8 15 8 C15 9.65 15 11.3 15 13 C12.03 13 9.06 13 6 13 C6 13.99 6 14.98 6 16 C9.3 16 12.6 16 16 16 C16 17.65 16 19.3 16 21 C10.72 21 5.44 21 0 21 C0 14.07 0 7.14 0 0 Z " fill="#222222" transform="translate(113,34)"/>
<path d="M0 0 C13.34520217 -0.49426675 13.34520217 -0.49426675 16.421875 1.828125 C18 4 18 4 18.5 7 C18 10 18 10 16.5 12.375 C12.86748926 14.73613198 10.28156703 14.2854378 6 14 C6 16.31 6 18.62 6 21 C4.02 21 2.04 21 0 21 C0 14.07 0 7.14 0 0 Z M6 4 C6 5.98 6 7.96 6 10 C7.65 9.67 9.3 9.34 11 9 C11 7.68 11 6.36 11 5 C9.35 4.67 7.7 4.34 6 4 Z " fill="#3E50B5" transform="translate(217,34)"/>
<path d="M0 0 C0.99128906 -0.00257812 1.98257813 -0.00515625 3.00390625 -0.0078125 C5.4375 0.125 5.4375 0.125 6.4375 1.125 C6.47813832 2.79117115 6.480221 4.45888095 6.4375 6.125 C5.365 5.8775 4.2925 5.63 3.1875 5.375 C-0.53316137 4.7505694 -0.53316137 4.7505694 -3.0625 6.75 C-4.78504437 9.02696793 -4.78504437 9.02696793 -4.625 11.75 C-3.75304747 14.30004413 -3.75304747 14.30004413 -1.3125 15.5 C1.67732504 16.17950569 3.51473164 15.96007667 6.4375 15.125 C6.480221 16.79111905 6.47813832 18.45882885 6.4375 20.125 C4.72060511 21.84189489 2.52871863 21.37803054 0.1875 21.4375 C-3.72725809 21.41207949 -5.25968853 21.30668688 -8.6875 19.25 C-11.84863364 15.66738188 -11.89280825 13.02428405 -11.85546875 8.38671875 C-11.42594199 5.0707722 -9.95325646 3.37512373 -7.5625 1.125 C-4.93920316 -0.18664842 -2.92551375 -0.00762846 0 0 Z " fill="#222222" transform="translate(144.5625,33.875)"/>
<path d="M0 0 C6.27 0 12.54 0 19 0 C19 1.65 19 3.3 19 5 C17.02 5 15.04 5 13 5 C13 10.28 13 15.56 13 21 C10.69 21 8.38 21 6 21 C6 15.72 6 10.44 6 5 C4.02 5 2.04 5 0 5 C0 3.35 0 1.7 0 0 Z " fill="#222222" transform="translate(90,34)"/>
<path d="M0 0 C2.97790338 1.19116135 4.51091369 2.49522465 6.5 5 C6.5 5.99 6.5 6.98 6.5 8 C5.18 7.67 3.86 7.34 2.5 7 C2.17 10.3 1.84 13.6 1.5 17 C0.18 17 -1.14 17 -2.5 17 C-2.83 13.7 -3.16 10.4 -3.5 7 C-4.82 7.33 -6.14 7.66 -7.5 8 C-7.11094382 5.27660672 -6.43262433 3.91096786 -4.75 1.6875 C-2.5 0 -2.5 0 0 0 Z " fill="#5FAC65" transform="translate(30.5,19)"/>
</svg>
